<svg xmlns="http://www.w3.org/2000/svg" viewBox="0 0 341 127" width="150" class="amaris-logo">
	<defs>
		<style>
			.cls-1 {
			fill: none;
			stroke: #272674;
			stroke-linecap: round;
			stroke-linejoin: round;
			stroke-width: 3px;
			}
			
			.cls-2 {
			fill: #272674;
			}
		</style>
	</defs>
	<g id="Layer_2" data-name="Layer 2">
		<g id="TYPO">
			<path class="cls-1" d="M72.13,15.62H36.57m283.57,0H159.81M72.13,95.55,36.57,15.62,1,95.55m0,0H300.16M298.68,8.31A7.31,7.31,0,1,1,291.37,1,7.31,7.31,0,0,1,298.68,8.31ZM159.81,55.58H231m-212.17,0H72.13m248-40a20,20,0,1,0,0,40,20,20,0,0,1,0,40h-20m-8.79-79.93V95.55m-11.12,0L255.6,64.92a24.65,24.65,0,1,0,0-49.3H231V95.55m-71.14,0V15.61a14.61,14.61,0,0,0-29.22,0V95.55m0,0V15.61a14.62,14.62,0,0,0-29.23,0V95.55m0,0V15.61a14.62,14.62,0,0,0-29.23,0V95.55m158.82,0L195.38,15.62,159.81,95.55">
			</path>
			<path class="cls-2" d="M87.94,113.64a8.22,8.22,0,0,0-2.18-1.55,7.16,7.16,0,0,0-2.88-.65,6.89,6.89,0,0,0,0,13.77,7,7,0,0,0,3.11-.78,7.7,7.7,0,0,0,1.93-1.4v2.3a8.72,8.72,0,0,1-5,1.63,8.64,8.64,0,1,1,.1-17.28,7.9,7.9,0,0,1,4.94,1.66Z">
			</path>
			<path class="cls-2" d="M95.15,118.32a8.69,8.69,0,1,1,8.69,8.64A8.53,8.53,0,0,1,95.15,118.32Zm1.9,0a6.79,6.79,0,1,0,6.79-6.88A6.82,6.82,0,0,0,97.05,118.32Z">
			</path>
			<path class="cls-2" d="M121.19,126.66v-17.4l13,13.64V110h1.86v17.45l-13-13.65v12.9Z">
			</path>
			<path class="cls-2" d="M153.09,113.26a4,4,0,0,0-1-1.25,3,3,0,0,0-1.88-.57,2.56,2.56,0,0,0-2.81,2.57,1.77,1.77,0,0,0,.63,1.46,5.59,5.59,0,0,0,1.75,1l1.61.7A8.23,8.23,0,0,1,154,118.8a4,4,0,0,1,1.21,3,5.37,5.37,0,0,1-8.92,3.78,6.12,6.12,0,0,1-1.55-3l1.8-.5a4,4,0,0,0,1,2.13,3.2,3.2,0,0,0,2.41.93,3.16,3.16,0,0,0,3.35-3.31,2.48,2.48,0,0,0-.82-2,7.35,7.35,0,0,0-2-1.15l-1.5-.7a7.33,7.33,0,0,1-2.23-1.38,3.49,3.49,0,0,1-1.15-2.73c0-2.58,2-4.31,4.68-4.31a4.51,4.51,0,0,1,2.68.75,5,5,0,0,1,1.63,1.86Z">
			</path>
			<path class="cls-2" d="M165.71,120.2c0,1.4,0,2.93,1.33,4.06a4.47,4.47,0,0,0,5.51,0c1.33-1.13,1.33-2.66,1.33-4.06V110h1.85V120.7a6.47,6.47,0,0,1-1,4,6.43,6.43,0,0,1-9.77,0,6.47,6.47,0,0,1-1-4V110h1.85Z">
			</path>
			<path class="cls-2" d="M187.15,110v15h4.61v1.75H185.3V110Z">
			</path>
			<path class="cls-2" d="M203.1,111.71v15h-1.85v-15h-4.06V110h10v1.75Z">
			</path>
			<path class="cls-2" d="M216.78,110v16.7h-1.86V110Z">
			</path>
			<path class="cls-2" d="M226.32,126.66v-17.4l13,13.64V110h1.85v17.45l-13-13.65v12.9Z">
			</path>
			<path class="cls-2" d="M259.37,118.27h7v.4a9.22,9.22,0,0,1-1.6,5.29,7.51,7.51,0,0,1-6.21,3,8.64,8.64,0,1,1,.05-17.28,8.29,8.29,0,0,1,5.11,1.66,10.22,10.22,0,0,1,1.93,2l-1.38,1.26a8.87,8.87,0,0,0-1.58-1.73,6.13,6.13,0,0,0-4.06-1.4,6.89,6.89,0,0,0,0,13.77,5.81,5.81,0,0,0,5.11-2.81,5.23,5.23,0,0,0,.68-2.38h-5Z">
			</path>
			<path class="cls-2" d="M285.86,120.85a1.78,1.78,0,1,0-1.77-1.77,1.78,1.78,0,0,0,1.77,1.77">
			</path>
			<path class="cls-2" d="M55.26,120.85a1.78,1.78,0,1,0-1.77-1.77,1.78,1.78,0,0,0,1.77,1.77">
			</path>
		</g>
	</g>
</svg>
